<mxfile host="Electron" modified="2023-12-04T09:27:30.193Z" agent="Mozilla/5.0 (Windows NT 10.0; Win64; x64) AppleWebKit/537.36 (KHTML, like Gecko) draw.io/22.0.1 Chrome/114.0.5735.289 Electron/25.8.4 Safari/537.36" etag="qTGQ88kJO9hChVFyywuG" version="22.0.1" type="device">
  <diagram name="Page-1" id="PFRo_AG4b1a6PHG0oDUO">
    <mxGraphModel dx="1036" dy="606" grid="1" gridSize="10" guides="1" tooltips="1" connect="1" arrows="1" fold="1" page="1" pageScale="1" pageWidth="827" pageHeight="1169" math="0" shadow="0">
      <root>
        <mxCell id="0" />
        <mxCell id="1" parent="0" />
        <mxCell id="BUbZbbIUMF7eErrfJYfU-14" value="" style="rounded=1;whiteSpace=wrap;html=1;fillColor=#fff2cc;strokeColor=#d6b656;gradientColor=#ffd966;" parent="1" vertex="1">
          <mxGeometry x="160" y="60" width="180" height="370" as="geometry" />
        </mxCell>
        <mxCell id="Oy4DeQh5UdjuG_DzSA3j-11" value="" style="rounded=1;whiteSpace=wrap;html=1;fillColor=#d5e8d4;strokeColor=#82b366;gradientColor=#97d077;" vertex="1" parent="1">
          <mxGeometry x="180" y="200" width="610" height="220" as="geometry" />
        </mxCell>
        <mxCell id="BUbZbbIUMF7eErrfJYfU-1" value="&lt;b&gt;RESEAU IPI&lt;/b&gt;&lt;br&gt;10.29.16.X" style="ellipse;shape=cloud;whiteSpace=wrap;html=1;fillColor=#a20025;fontColor=#ffffff;strokeColor=#6F0000;" parent="1" vertex="1">
          <mxGeometry x="184" y="60" width="120" height="80" as="geometry" />
        </mxCell>
        <mxCell id="BUbZbbIUMF7eErrfJYfU-3" value="" style="image;html=1;image=img/lib/clip_art/networking/Router_128x128.png" parent="1" vertex="1">
          <mxGeometry x="210" y="170" width="80" height="80" as="geometry" />
        </mxCell>
        <mxCell id="Oy4DeQh5UdjuG_DzSA3j-5" value="" style="edgeStyle=orthogonalEdgeStyle;rounded=0;orthogonalLoop=1;jettySize=auto;html=1;" edge="1" parent="1" source="BUbZbbIUMF7eErrfJYfU-4" target="BUbZbbIUMF7eErrfJYfU-11">
          <mxGeometry relative="1" as="geometry" />
        </mxCell>
        <mxCell id="BUbZbbIUMF7eErrfJYfU-4" value="&lt;font color=&quot;#000000&quot;&gt;&lt;b&gt;R1&lt;/b&gt;&lt;br&gt;192.168.0.1&lt;/font&gt;" style="text;html=1;strokeColor=none;fillColor=none;align=center;verticalAlign=middle;whiteSpace=wrap;rounded=0;" parent="1" vertex="1">
          <mxGeometry x="198" y="237.5" width="106" height="30" as="geometry" />
        </mxCell>
        <mxCell id="BUbZbbIUMF7eErrfJYfU-11" value="" style="image;html=1;image=img/lib/clip_art/computers/Server_128x128.png" parent="1" vertex="1">
          <mxGeometry x="210" y="310" width="80" height="80" as="geometry" />
        </mxCell>
        <mxCell id="BUbZbbIUMF7eErrfJYfU-12" value="&lt;font color=&quot;#000000&quot;&gt;&lt;b style=&quot;&quot;&gt;HOTE1 PROXMOX&lt;/b&gt;&lt;br&gt;192.168.0.2&lt;/font&gt;" style="text;html=1;strokeColor=none;fillColor=none;align=center;verticalAlign=middle;whiteSpace=wrap;rounded=0;" parent="1" vertex="1">
          <mxGeometry x="198" y="380" width="112" height="30" as="geometry" />
        </mxCell>
        <mxCell id="BUbZbbIUMF7eErrfJYfU-13" value="&lt;font style=&quot;font-size: 25px;&quot;&gt;&lt;b&gt;INFRA MINIMALISTE&lt;/b&gt;&lt;/font&gt;" style="text;html=1;strokeColor=none;fillColor=none;align=center;verticalAlign=middle;whiteSpace=wrap;rounded=0;" parent="1" vertex="1">
          <mxGeometry x="160" y="30" width="260" height="30" as="geometry" />
        </mxCell>
        <mxCell id="BUbZbbIUMF7eErrfJYfU-55" value="" style="ellipse;whiteSpace=wrap;html=1;fillColor=#e6d0de;strokeColor=#996185;gradientColor=#d5739d;" parent="1" vertex="1">
          <mxGeometry x="420" y="172.5" width="360" height="275" as="geometry" />
        </mxCell>
        <mxCell id="BUbZbbIUMF7eErrfJYfU-57" value="" style="image;html=1;image=img/lib/clip_art/computers/Virtual_Machine_128x128.png" parent="1" vertex="1">
          <mxGeometry x="504" y="205" width="80" height="80" as="geometry" />
        </mxCell>
        <mxCell id="BUbZbbIUMF7eErrfJYfU-59" value="" style="image;html=1;image=img/lib/clip_art/computers/Virtual_Machine_128x128.png" parent="1" vertex="1">
          <mxGeometry x="624" y="205" width="80" height="80" as="geometry" />
        </mxCell>
        <mxCell id="BUbZbbIUMF7eErrfJYfU-60" value="&lt;b&gt;SRV-ANSIBLE&lt;/b&gt;&lt;br&gt;192.168.0.3" style="text;html=1;strokeColor=none;fillColor=none;align=center;verticalAlign=middle;whiteSpace=wrap;rounded=0;" parent="1" vertex="1">
          <mxGeometry x="489" y="280" width="110" height="30" as="geometry" />
        </mxCell>
        <mxCell id="BUbZbbIUMF7eErrfJYfU-61" value="&lt;b&gt;SRV-WEB&lt;/b&gt;&lt;br&gt;192.168.0.4" style="text;html=1;strokeColor=none;fillColor=none;align=center;verticalAlign=middle;whiteSpace=wrap;rounded=0;" parent="1" vertex="1">
          <mxGeometry x="624" y="280" width="80" height="30" as="geometry" />
        </mxCell>
        <mxCell id="Oy4DeQh5UdjuG_DzSA3j-2" value="" style="endArrow=classic;startArrow=classic;html=1;rounded=0;entryX=0.55;entryY=0.95;entryDx=0;entryDy=0;entryPerimeter=0;exitX=0.5;exitY=0;exitDx=0;exitDy=0;fontColor=#000000;strokeColor=#000000;" edge="1" parent="1" source="BUbZbbIUMF7eErrfJYfU-3" target="BUbZbbIUMF7eErrfJYfU-1">
          <mxGeometry width="50" height="50" relative="1" as="geometry">
            <mxPoint x="560" y="330" as="sourcePoint" />
            <mxPoint x="610" y="280" as="targetPoint" />
          </mxGeometry>
        </mxCell>
        <mxCell id="Oy4DeQh5UdjuG_DzSA3j-3" value="" style="endArrow=classic;startArrow=classic;html=1;rounded=0;entryX=0.5;entryY=1;entryDx=0;entryDy=0;exitX=0.5;exitY=0;exitDx=0;exitDy=0;strokeColor=#000000;" edge="1" parent="1" source="BUbZbbIUMF7eErrfJYfU-11" target="BUbZbbIUMF7eErrfJYfU-4">
          <mxGeometry width="50" height="50" relative="1" as="geometry">
            <mxPoint x="560" y="330" as="sourcePoint" />
            <mxPoint x="610" y="280" as="targetPoint" />
          </mxGeometry>
        </mxCell>
        <mxCell id="Oy4DeQh5UdjuG_DzSA3j-6" value="" style="endArrow=classic;startArrow=classic;html=1;rounded=0;exitX=1;exitY=0.5;exitDx=0;exitDy=0;entryX=0.022;entryY=0.637;entryDx=0;entryDy=0;entryPerimeter=0;strokeColor=#000000;" edge="1" parent="1" source="BUbZbbIUMF7eErrfJYfU-11" target="BUbZbbIUMF7eErrfJYfU-55">
          <mxGeometry width="50" height="50" relative="1" as="geometry">
            <mxPoint x="560" y="330" as="sourcePoint" />
            <mxPoint x="394" y="350" as="targetPoint" />
          </mxGeometry>
        </mxCell>
        <mxCell id="Oy4DeQh5UdjuG_DzSA3j-7" value="" style="image;html=1;image=img/lib/clip_art/computers/Virtual_Machine_128x128.png" vertex="1" parent="1">
          <mxGeometry x="504" y="310" width="80" height="80" as="geometry" />
        </mxCell>
        <mxCell id="Oy4DeQh5UdjuG_DzSA3j-8" value="&lt;b&gt;SRV-PROXMOX&lt;/b&gt;&lt;br&gt;192.168.0.5" style="text;html=1;strokeColor=none;fillColor=none;align=center;verticalAlign=middle;whiteSpace=wrap;rounded=0;" vertex="1" parent="1">
          <mxGeometry x="489" y="385" width="110" height="30" as="geometry" />
        </mxCell>
        <mxCell id="Oy4DeQh5UdjuG_DzSA3j-9" value="" style="image;html=1;image=img/lib/clip_art/computers/Virtual_Machine_128x128.png" vertex="1" parent="1">
          <mxGeometry x="624" y="310" width="80" height="80" as="geometry" />
        </mxCell>
        <mxCell id="Oy4DeQh5UdjuG_DzSA3j-10" value="&lt;b&gt;SRV-MGMT&lt;/b&gt;&lt;br&gt;192.168.0.6" style="text;html=1;strokeColor=none;fillColor=none;align=center;verticalAlign=middle;whiteSpace=wrap;rounded=0;" vertex="1" parent="1">
          <mxGeometry x="609" y="385" width="110" height="30" as="geometry" />
        </mxCell>
        <mxCell id="Oy4DeQh5UdjuG_DzSA3j-12" value="&lt;font style=&quot;font-size: 17px;&quot;&gt;&lt;b&gt;RESEAU LABO&amp;nbsp;&lt;/b&gt;&lt;br&gt;192.168.0.0/28&lt;/font&gt;" style="text;html=1;strokeColor=none;fillColor=none;align=center;verticalAlign=middle;whiteSpace=wrap;rounded=0;fontColor=#009900;" vertex="1" parent="1">
          <mxGeometry x="308" y="210" width="156" height="30" as="geometry" />
        </mxCell>
      </root>
    </mxGraphModel>
  </diagram>
</mxfile>
